<?xml version="1.0" standalone="no"?>
<!DOCTYPE svg PUBLIC "-//W3C//DTD SVG 20010904//EN"
 "http://www.w3.org/TR/2001/REC-SVG-20010904/DTD/svg10.dtd">
<svg version="1.0" xmlns="http://www.w3.org/2000/svg"
 width="355.000000pt" height="142.000000pt" viewBox="0 0 355.000000 142.000000"
 preserveAspectRatio="xMidYMid meet">

<g transform="translate(0.000000,142.000000) scale(0.100000,-0.100000)"
fill="#000000" stroke="none">
<path d="M200 1200 c0 -16 7 -20 30 -20 28 0 30 -3 31 -37 2 -133 3 -138 24
-138 18 0 20 8 23 87 l3 87 32 3 c21 2 33 9 35 21 3 15 -6 17 -87 17 -84 0
-91 -1 -91 -20z"/>
<path d="M436 1192 c-53 -56 -44 -143 19 -182 41 -25 71 -25 113 0 103 63 60
210 -60 210 -36 0 -50 -6 -72 -28z m113 -19 c71 -59 -1 -181 -76 -128 -40 28
-36 110 8 132 32 17 43 16 68 -4z"/>
<path d="M640 1215 c0 -3 17 -29 37 -58 27 -37 39 -66 43 -102 4 -42 8 -50 25
-50 16 0 21 8 25 45 4 29 19 65 43 101 43 65 44 69 17 69 -11 0 -31 -18 -50
-45 -17 -25 -36 -43 -41 -40 -5 4 -18 24 -29 46 -16 29 -26 39 -45 39 -14 0
-25 -2 -25 -5z"/>
<path d="M904 1186 c-28 -28 -34 -41 -34 -78 0 -50 18 -82 60 -103 39 -20 69
-19 108 5 44 27 62 70 50 124 -12 55 -50 86 -106 86 -37 0 -50 -6 -78 -34z
m129 -28 c25 -29 22 -74 -8 -103 -28 -29 -51 -31 -83 -9 -20 14 -23 23 -20 67
3 43 7 53 28 64 30 15 59 8 83 -19z"/>
<path d="M1115 1210 c-10 -17 5 -30 35 -30 l29 0 3 -87 c3 -80 5 -88 23 -88
18 0 20 8 23 88 l3 87 34 0 c28 0 35 4 35 20 0 19 -7 20 -89 20 -50 0 -93 -4
-96 -10z"/>
<path d="M1377 1213 c-14 -24 -77 -185 -77 -198 0 -26 39 -17 46 10 6 23 11
25 60 25 39 0 54 -4 54 -14 0 -19 27 -39 45 -33 12 5 7 25 -28 109 -37 91 -45
103 -69 106 -14 2 -28 0 -31 -5z m42 -65 c24 -66 24 -68 -7 -68 -36 0 -43 7
-32 33 5 12 11 30 14 40 7 23 15 22 25 -5z"/>
<path d="M1600 1111 c0 -84 3 -110 14 -114 8 -3 17 -3 20 0 3 4 6 55 6 115 0
101 -1 108 -20 108 -19 0 -20 -7 -20 -109z"/>
<path d="M1690 1111 c0 -61 4 -112 8 -115 19 -12 31 14 34 74 l3 65 43 -67
c34 -53 49 -68 68 -68 24 0 24 0 24 110 0 103 -1 110 -20 110 -17 0 -19 -8
-22 -72 l-3 -73 -47 73 c-33 50 -54 72 -68 72 -19 0 -20 -6 -20 -109z"/>
<path d="M1910 1201 c0 -15 8 -21 31 -23 l31 -3 2 -85 c1 -80 2 -85 24 -88 21
-3 22 -1 22 87 l0 91 35 0 c28 0 35 4 35 20 0 19 -7 20 -90 20 -82 0 -90 -2
-90 -19z"/>
<path d="M2120 1110 l0 -110 90 0 c72 0 90 3 90 15 0 10 -16 15 -62 17 -60 3
-63 4 -66 30 -3 22 2 29 23 34 14 3 35 4 46 1 27 -7 49 1 49 19 0 10 -15 14
-60 14 -57 0 -60 1 -60 25 0 24 3 25 59 25 41 0 60 4 64 14 9 23 -2 26 -90 26
l-83 0 0 -110z"/>
<path d="M2340 1112 c0 -61 4 -113 9 -116 23 -15 41 7 41 50 0 51 18 58 49 22
11 -13 28 -33 38 -45 22 -26 63 -40 63 -21 0 7 -14 30 -30 50 l-30 37 25 25
c28 28 32 53 11 81 -12 16 -29 20 -95 23 l-81 4 0 -110z m137 52 c8 -22 -22
-44 -59 -44 -24 0 -28 4 -28 30 0 28 2 30 40 30 28 0 43 -5 47 -16z"/>
<path d="M2605 1197 c-32 -27 -45 -100 -26 -145 15 -35 59 -62 101 -62 34 0
97 51 85 70 -10 17 -39 11 -53 -10 -12 -20 -47 -26 -70 -12 -21 14 -30 65 -18
102 10 31 16 35 49 38 26 2 39 -1 43 -12 7 -18 39 -22 49 -6 3 5 -5 21 -19 35
-34 34 -103 35 -141 2z"/>
<path d="M2848 1204 c-55 -29 -60 -142 -8 -189 30 -27 99 -30 137 -6 60 38 66
140 11 186 -34 29 -96 33 -140 9z m116 -46 c25 -36 16 -98 -18 -120 -40 -27
-96 12 -96 65 0 48 24 77 65 77 24 0 39 -7 49 -22z"/>
<path d="M3060 1112 c0 -79 4 -111 13 -114 29 -11 37 4 37 75 1 81 11 75 30
-16 11 -55 13 -58 38 -55 24 3 28 10 40 63 19 89 32 91 32 7 0 -65 2 -72 20
-72 19 0 20 7 20 110 l0 110 -34 0 c-33 0 -35 -2 -51 -57 -26 -92 -26 -93 -50
-18 -21 69 -22 70 -58 73 l-37 3 0 -109z"/>
<path d="M1466 903 c-15 -25 -23 -49 -20 -52 4 -3 9 0 11 7 5 14 53 17 53 2 0
-5 5 -10 10 -10 6 0 8 11 5 25 -3 14 -7 36 -10 50 -8 36 -20 31 -49 -22z m34
-3 c0 -5 -5 -10 -11 -10 -5 0 -7 5 -4 10 3 6 8 10 11 10 2 0 4 -4 4 -10z"/>
<path d="M1687 920 c-4 -18 -7 -42 -7 -54 1 -16 4 -14 15 12 17 38 35 35 27
-4 -3 -19 -1 -25 7 -20 14 9 14 66 0 66 -7 0 -17 7 -24 16 -10 15 -13 13 -18
-16z"/>
<path d="M2137 936 c-3 -8 -16 -16 -29 -18 -18 -2 -24 -10 -26 -36 -3 -31 -1
-33 24 -30 22 2 29 11 40 48 16 54 16 50 5 50 -5 0 -11 -6 -14 -14z m-19 -64
c-7 -8 -14 -10 -21 -3 -7 7 -6 15 3 26 10 12 15 13 21 3 4 -7 3 -18 -3 -26z"/>
<path d="M2220 941 c0 -5 7 -12 16 -15 11 -4 14 -13 10 -29 -3 -12 -1 -29 4
-37 7 -11 10 -3 10 28 0 31 4 42 15 42 8 0 15 5 15 10 0 6 -16 10 -35 10 -19
0 -35 -4 -35 -9z"/>
<path d="M2328 939 c-21 -12 -24 -59 -6 -77 7 -7 25 -12 40 -12 40 0 58 39 34
75 -17 26 -39 31 -68 14z m60 -35 c2 -11 -4 -26 -12 -33 -31 -26 -71 14 -45
45 17 21 53 14 57 -12z"/>
<path d="M2486 929 c-15 -21 -16 -22 -34 -6 -29 26 -36 20 -13 -12 12 -16 21
-37 21 -46 0 -9 5 -13 10 -10 6 4 8 10 6 14 -3 4 4 22 15 40 23 38 19 54 -5
20z"/>
<path d="M2536 928 c-20 -28 -20 -43 0 -62 30 -30 94 -10 94 30 0 20 -37 54
-59 54 -11 0 -27 -10 -35 -22z m67 -20 c8 -12 7 -21 -2 -32 -29 -35 -69 -8
-55 36 7 23 42 21 57 -4z"/>
<path d="M2640 940 c0 -5 7 -10 15 -10 11 0 15 -11 15 -40 0 -50 15 -53 17 -3
0 21 6 39 12 41 24 8 9 22 -24 22 -19 0 -35 -4 -35 -10z"/>
<path d="M2753 933 c-3 -10 -12 -33 -19 -50 -7 -19 -9 -33 -3 -33 5 0 9 5 9
10 0 15 58 12 63 -2 2 -7 7 -10 11 -7 9 8 -32 99 -45 99 -5 0 -12 -8 -16 -17z
m27 -33 c0 -19 -11 -26 -23 -14 -8 8 3 34 14 34 5 0 9 -9 9 -20z"/>
<path d="M2897 943 c-3 -5 -8 -27 -12 -50 -7 -42 -6 -43 23 -43 53 0 85 67 43
90 -23 12 -48 13 -54 3z m48 -23 c11 -18 -6 -50 -26 -50 -21 0 -22 3 -13 38 7
23 28 30 39 12z"/>
<path d="M3147 943 c-11 -18 -19 -98 -9 -88 11 11 27 95 18 95 -2 0 -7 -3 -9
-7z"/>
<path d="M1640 913 c0 -10 -3 -28 -6 -40 -4 -16 -2 -23 7 -23 8 0 14 10 15 23
0 12 4 30 8 40 6 12 4 17 -8 17 -9 0 -16 -8 -16 -17z"/>
<path d="M1557 907 c-15 -37 -8 -57 18 -57 18 0 28 7 35 26 20 53 3 63 -19 12
l-14 -33 -6 35 c-5 28 -8 31 -14 17z"/>
<path d="M1764 894 c-7 -29 6 -47 31 -42 44 8 45 68 1 68 -19 0 -27 -7 -32
-26z m43 -18 c-4 -9 -11 -16 -17 -16 -11 0 -14 33 -3 44 11 10 26 -11 20 -28z"/>
<path d="M1845 889 c-8 -34 1 -52 11 -23 4 10 14 27 22 37 14 15 13 17 -6 17
-15 0 -22 -8 -27 -31z"/>
<path d="M1905 906 c-3 -9 -7 -23 -10 -31 -2 -8 0 -17 5 -20 4 -3 11 9 15 26
7 32 -1 53 -10 25z"/>
<path d="M1949 906 c9 -10 8 -16 -4 -26 -23 -19 -18 -30 13 -30 20 0 23 3 12
10 -12 8 -12 11 3 28 23 26 21 32 -9 32 -21 0 -24 -3 -15 -14z"/>
<path d="M2010 905 c-6 -8 -9 -23 -5 -35 7 -21 39 -27 51 -9 4 8 0 9 -15 4
-23 -7 -25 -2 -11 30 7 17 9 17 9 3 1 -18 12 -23 24 -12 11 11 -5 34 -23 34
-10 0 -23 -7 -30 -15z"/>
<path d="M2984 906 c-10 -26 1 -51 24 -54 12 -2 22 1 22 7 0 6 -7 8 -15 5 -11
-5 -14 -1 -12 15 4 26 17 40 17 18 0 -9 5 -17 11 -17 6 0 9 8 7 18 -4 22 -46
29 -54 8z"/>
<path d="M3070 910 c0 -6 5 -8 10 -5 6 4 10 -5 10 -19 0 -14 -5 -26 -11 -26
-6 0 -8 7 -5 16 4 10 1 14 -6 12 -24 -8 -13 -33 15 -36 23 -3 27 0 27 22 0 14
1 29 3 34 1 4 -8 8 -20 10 -13 2 -23 -2 -23 -8z"/>
<path d="M3174 906 c-10 -26 1 -51 24 -54 12 -2 22 2 22 8 0 7 -7 10 -15 6
-17 -6 -22 29 -5 39 6 3 10 -1 10 -9 0 -9 5 -16 11 -16 6 0 9 8 7 18 -4 22
-46 29 -54 8z"/>
<path d="M3250 908 c0 -7 -3 -23 -6 -35 -4 -14 -2 -23 5 -23 6 0 11 8 11 17 0
9 7 25 17 35 15 17 15 18 -5 18 -12 0 -22 -6 -22 -12z"/>
<path d="M1570 657 c-192 -37 -326 -136 -351 -257 -44 -214 239 -389 568 -352
148 17 250 62 330 144 102 104 96 237 -15 339 -94 86 -207 127 -372 134 -54 2
-123 -1 -160 -8z m298 -44 c68 -17 122 -54 122 -83 0 -25 -52 -67 -98 -80 -69
-19 -75 -16 -94 49 -50 168 -150 158 -198 -18 l-11 -43 -42 6 c-55 9 -118 45
-129 74 -6 20 -3 29 21 51 67 63 272 84 429 44z m-113 -103 c8 -16 15 -40 15
-55 0 -24 -2 -25 -70 -25 -79 0 -81 3 -54 69 26 66 77 72 109 11z m-415 -16
c0 -9 15 -31 33 -48 31 -32 81 -55 163 -76 l41 -10 7 -63 c8 -75 32 -152 58
-190 11 -16 18 -31 15 -34 -11 -10 -146 26 -205 56 -65 33 -124 88 -153 143
-26 51 -26 146 1 198 21 41 40 52 40 24z m786 -100 c20 -134 -107 -264 -300
-309 -75 -17 -96 -13 -71 15 27 29 54 115 61 190 l7 70 41 10 c112 29 165 60
192 113 l16 31 24 -39 c13 -22 26 -58 30 -81z m-346 -71 c-1 -46 -22 -107 -46
-134 -24 -27 -54 -20 -80 18 -21 32 -40 125 -29 143 3 6 40 10 81 10 l74 0 0
-37z"/>
</g>
</svg>
